name Run_500 04_newCOP3_v24.mot
datacolumns 19
datarows 96
range 1.425 1.4725
DataType=double
version=3
OpenSimVersion=4.3-2021-08-27-4bc7ad9
endheader
time	R_ground_force_vx	R_ground_force_vy	R_ground_force_vz	R_ground_force_px	R_ground_force_py	R_ground_force_pz	L_ground_force_vx	L_ground_force_vy	L_ground_force_vz	L_ground_force_px	L_ground_force_py	L_ground_force_pz	R_ground_torque_x	R_ground_torque_y	R_ground_torque_z	L_ground_torque_x	L_ground_torque_y	L_ground_torque_z
1.425	0	0	0	0	0	0	42.533764	58.924007	-18.015213	0.66897	0	-0.410517	0	0	0	-0	1.416947	-0
1.4255	0	0	0	0	0	0	40.616974	56.210129	-17.653101	0.66738	0	-0.40987	0	0	0	-0	1.353395	-0
1.426	0	0	0	0	0	0	38.745213	53.602455	-17.285673	0.6658269999999999	0	-0.409123	0	0	0	-0	1.290898	-0
1.4265	0	0	0	0	0	0	36.919209	51.099174	-16.913103	0.66432	0	-0.408266	0	0	0	-0	1.229467	-0
1.427	0	0	0	0	0	0	35.139572	48.698387	-16.535597	0.66287	0	-0.407285	0	0	0	-0	1.16911	-0
1.4275	0	0	0	0	0	0	33.406822	46.398106	-16.153408	0.661487	0	-0.40617	0	0	0	-0	1.109835	-0
1.428	0	0	0	0	0	0	31.721367	44.196255	-15.766822	0.660185	0	-0.404906	0	0	0	-0	1.051652	-0
1.4285	0	0	0	0	0	0	30.083509	42.090679	-15.376168	0.658976	0	-0.40348	0	0	0	-0	0.99457	-0
1.429	0	0	0	0	0	0	28.493454	40.079136	-14.981813	0.657874	0	-0.401879	0	0	0	-0	0.938597	-0
1.4295	0	0	0	0	0	0	26.9513	38.159302	-14.584159	0.656892	0	-0.400088	0	0	0	-0	0.883742	-0
1.43	0	0	0	0	0	0	25.457056	36.328785	-14.183643	0.656045	0	-0.398094	0	0	0	-0	0.830014	-0
1.4305	0	0	0	0	0	0	24.010633	34.585106	-13.780735	0.655348	0	-0.395881	0	0	0	-0	0.777421	-0
1.431	0	0	0	0	0	0	22.611855	32.92572	-13.375937	0.654815	0	-0.393435	0	0	0	-0	0.725972	-0
1.4315	0	0	0	0	0	0	21.260458	31.348026	-12.96978	0.654462	0	-0.390744	0	0	0	-0	0.675674	-0
1.432	0	0	0	0	0	0	19.956106	29.849348	-12.562821	0.654301	0	-0.387794	0	0	0	-0	0.626536	-0
1.4325	0	0	0	0	0	0	18.698385	28.42696	-12.155642	0.654345	0	-0.384574	0	0	0	-0	0.578565	-0
1.433	0	0	0	0	0	0	17.486816	27.078083	-11.748844	0.654606	0	-0.381071	0	0	0	-0	0.53177	-0
1.4335	0	0	0	0	0	0	16.320858	25.7999	-11.343051	0.655092	0	-0.377278	0	0	0	-0	0.486156	-0
1.434	0	0	0	0	0	0	15.199912	24.58955	-10.938897	0.655811	0	-0.373187	0	0	0	-0	0.441732	-0
1.4345	0	0	0	0	0	0	14.123333	23.444151	-10.537032	0.656766	0	-0.368792	0	0	0	-0	0.398503	-0
1.435	0	0	0	0	0	0	13.090431	22.360794	-10.138114	0.657958	0	-0.36409	0	0	0	-0	0.356477	-0
1.4355	0	0	0	0	0	0	12.100479	21.336565	-9.742806	0.6593830000000001	0	-0.35908	0	0	0	-0	0.315659	-0
1.436	0	0	0	0	0	0	11.152717	20.368544	-9.351773	0.661033	0	-0.353764	0	0	0	-0	0.276055	-0
1.4365	0	0	0	0	0	0	10.246358	19.453817	-8.965681	0.662897	0	-0.348148	0	0	0	-0	0.237669	-0
1.437	0	0	0	0	0	0	9.380597	18.589491	-8.585188	0.664955	0	-0.342239	0	0	0	-0	0.200508	-0
1.4375	0	0	0	0	0	0	8.554611	17.772697	-8.210946	0.667187	0	-0.336047	0	0	0	-0	0.164574	-0
1.438	0	0	0	0	0	0	7.767566	17.000608	-7.843595	0.669564	0	-0.329587	0	0	0	-0	0.129872	-0
1.4385	0	0	0	0	0	0	7.01862	16.270441	-7.483758	0.672052	0	-0.322873	0	0	0	-0	0.09640600000000001	-0
1.439	0	0	0	0	0	0	6.306929	15.579471	-7.132043	0.674614	0	-0.315925	0	0	0	-0	0.064177	-0
1.4395	0	0	0	0	0	0	5.631649	14.925039	-6.789033	0.6772049999999999	0	-0.308763	0	0	0	-0	0.033189	-0
1.44	0	0	0	0	0	0	4.99194	14.304569	-6.455287	0.679779	0	-0.30141	0	0	0	-0	0.003443	-0
1.4405	0	0	0	0	0	0	4.386966	13.715564	-6.131335	0.682281	0	-0.29389	0	0	0	0	-0.02506	0
1.441	0	0	0	0	0	0	3.815902	13.155625	-5.817677	0.684655	0	-0.286226	0	0	0	0	-0.052319	0
1.4415	0	0	0	0	0	0	3.277931	12.622455	-5.514781	0.686842	0	-0.278445	0	0	0	0	-0.078334	0
1.442	0	0	0	0	0	0	2.772248	12.113861	-5.223073	0.688778	0	-0.270572	0	0	0	0	-0.103105	0
1.4425	0	0	0	0	0	0	2.298057	11.627772	-4.942945	0.690397	0	-0.262631	0	0	0	0	-0.126635	0
1.443	0	0	0	0	0	0	1.854576	11.162232	-4.674747	0.69163	0	-0.254647	0	0	0	0	-0.148925	0
1.4435	0	0	0	0	0	0	1.441034	10.715412	-4.418783	0.692407	0	-0.246642	0	0	0	0	-0.169976	0
1.444	0	0	0	0	0	0	1.05667	10.285609	-4.175314	0.692657	0	-0.238638	0	0	0	0	-0.189794	0
1.4445	0	0	0	0	0	0	0	0	0	0	0	0	0	0	0	0	0	0
1.445	0	0	0	0	0	0	0	0	0	0	0	0	0	0	0	0	0	0
1.4455	0	0	0	0	0	0	0	0	0	0	0	0	0	0	0	0	0	0
1.446	0	0	0	0	0	0	0	0	0	0	0	0	0	0	0	0	0	0
1.4465	0	0	0	0	0	0	0	0	0	0	0	0	0	0	0	0	0	0
1.447	0	0	0	0	0	0	0	0	0	0	0	0	0	0	0	0	0	0
1.4475	0	0	0	0	0	0	0	0	0	0	0	0	0	0	0	0	0	0
1.448	0	0	0	0	0	0	0	0	0	0	0	0	0	0	0	0	0	0
1.4485	0	0	0	0	0	0	0	0	0	0	0	0	0	0	0	0	0	0
1.449	0	0	0	0	0	0	0	0	0	0	0	0	0	0	0	0	0	0
1.4495	0	0	0	0	0	0	0	0	0	0	0	0	0	0	0	0	0	0
1.45	0	0	0	0	0	0	0	0	0	0	0	0	0	0	0	0	0	0
1.4505	0	0	0	0	0	0	0	0	0	0	0	0	0	0	0	0	0	0
1.451	0	0	0	0	0	0	0	0	0	0	0	0	0	0	0	0	0	0
1.4515	0	0	0	0	0	0	0	0	0	0	0	0	0	0	0	0	0	0
1.452	0	0	0	0	0	0	0	0	0	0	0	0	0	0	0	0	0	0
1.4525	0	0	0	0	0	0	0	0	0	0	0	0	0	0	0	0	0	0
1.453	0	0	0	0	0	0	0	0	0	0	0	0	0	0	0	0	0	0
1.4535	0	0	0	0	0	0	0	0	0	0	0	0	0	0	0	0	0	0
1.454	0	0	0	0	0	0	0	0	0	0	0	0	0	0	0	0	0	0
1.4545	0	0	0	0	0	0	0	0	0	0	0	0	0	0	0	0	0	0
1.455	0	0	0	0	0	0	0	0	0	0	0	0	0	0	0	0	0	0
1.4555	0	0	0	0	0	0	0	0	0	0	0	0	0	0	0	0	0	0
1.456	0	0	0	0	0	0	0	0	0	0	0	0	0	0	0	0	0	0
1.4565	0	0	0	0	0	0	0	0	0	0	0	0	0	0	0	0	0	0
1.457	0	0	0	0	0	0	0	0	0	0	0	0	0	0	0	0	0	0
1.4575	0	0	0	0	0	0	0	0	0	0	0	0	0	0	0	0	0	0
1.458	0	0	0	0	0	0	0	0	0	0	0	0	0	0	0	0	0	0
1.4585	0	0	0	0	0	0	0	0	0	0	0	0	0	0	0	0	0	0
1.459	0	0	0	0	0	0	0	0	0	0	0	0	0	0	0	0	0	0
1.4595	0	0	0	0	0	0	0	0	0	0	0	0	0	0	0	0	0	0
1.46	0	0	0	0	0	0	0	0	0	0	0	0	0	0	0	0	0	0
1.4605	0	0	0	0	0	0	0	0	0	0	0	0	0	0	0	0	0	0
1.461	0	0	0	0	0	0	0	0	0	0	0	0	0	0	0	0	0	0
1.4615	0	0	0	0	0	0	0	0	0	0	0	0	0	0	0	0	0	0
1.462	0	0	0	0	0	0	0	0	0	0	0	0	0	0	0	0	0	0
1.4625	0	0	0	0	0	0	0	0	0	0	0	0	0	0	0	0	0	0
1.463	0	0	0	0	0	0	0	0	0	0	0	0	0	0	0	0	0	0
1.4635	0	0	0	0	0	0	0	0	0	0	0	0	0	0	0	0	0	0
1.464	0	0	0	0	0	0	0	0	0	0	0	0	0	0	0	0	0	0
1.4645	0	0	0	0	0	0	0	0	0	0	0	0	0	0	0	0	0	0
1.465	0	0	0	0	0	0	0	0	0	0	0	0	0	0	0	0	0	0
1.4655	0	0	0	0	0	0	0	0	0	0	0	0	0	0	0	0	0	0
1.466	0	0	0	0	0	0	0	0	0	0	0	0	0	0	0	0	0	0
1.4665	0	0	0	0	0	0	0	0	0	0	0	0	0	0	0	0	0	0
1.467	0	0	0	0	0	0	0	0	0	0	0	0	0	0	0	0	0	0
1.4675	0	0	0	0	0	0	0	0	0	0	0	0	0	0	0	0	0	0
1.468	0	0	0	0	0	0	0	0	0	0	0	0	0	0	0	0	0	0
1.4685	0	0	0	0	0	0	0	0	0	0	0	0	0	0	0	0	0	0
1.469	0	0	0	0	0	0	0	0	0	0	0	0	0	0	0	0	0	0
1.4695	0	0	0	0	0	0	0	0	0	0	0	0	0	0	0	0	0	0
1.47	0	0	0	0	0	0	0	0	0	0	0	0	0	0	0	0	0	0
1.4705	0	0	0	0	0	0	0	0	0	0	0	0	0	0	0	0	0	0
1.471	0	0	0	0	0	0	0	0	0	0	0	0	0	0	0	0	0	0
1.4715	0	0	0	0	0	0	0	0	0	0	0	0	0	0	0	0	0	0
1.472	0	0	0	0	0	0	0	0	0	0	0	0	0	0	0	0	0	0
1.4725	0	0	0	0	0	0	0	0	0	0	0	0	0	0	0	0	0	0
